M48
; DRILL file {KiCad 6.0.5-a6ca702e91~116~ubuntu20.04.1} date Sat 07 May 2022 15:00:10 EEST
; FORMAT={-:-/ absolute / inch / decimal}
; #@! TF.CreationDate,2022-05-07T15:00:10+03:00
; #@! TF.GenerationSoftware,Kicad,Pcbnew,6.0.5-a6ca702e91~116~ubuntu20.04.1
; #@! TF.FileFunction,Plated,1,2,PTH
FMAT,2
INCH
; #@! TA.AperFunction,Plated,PTH,ComponentDrill
T1C0.0276
; #@! TA.AperFunction,Plated,PTH,ComponentDrill
T2C0.0354
; #@! TA.AperFunction,Plated,PTH,ComponentDrill
T3C0.0394
; #@! TA.AperFunction,Plated,PTH,ComponentDrill
T4C0.0984
%
G90
G05
T1
X5.75Y-3.9
X5.75Y-4.1
X5.85Y-3.9
X5.85Y-4.1
X5.95Y-3.9
X5.95Y-4.1
T2
X5.8Y-3.425
X5.8Y-3.6
X5.8Y-3.775
X5.9Y-3.425
X5.9Y-3.6
X5.9Y-3.775
T3
X5.7Y-4.25
X5.8Y-4.25
X5.9Y-4.25
X6.0Y-4.25
T4
X5.5Y-3.425
X5.5Y-4.3
X6.2Y-3.425
X6.2Y-4.3
T0
M30
