%TF.GenerationSoftware,KiCad,Pcbnew,6.0.5-a6ca702e91~116~ubuntu20.04.1*%
%TF.CreationDate,2022-05-07T15:00:13+03:00*%
%TF.ProjectId,traffic_light_for_arduino,74726166-6669-4635-9f6c-696768745f66,rev?*%
%TF.SameCoordinates,Original*%
%TF.FileFunction,Legend,Bot*%
%TF.FilePolarity,Positive*%
%FSLAX46Y46*%
G04 Gerber Fmt 4.6, Leading zero omitted, Abs format (unit mm)*
G04 Created by KiCad (PCBNEW 6.0.5-a6ca702e91~116~ubuntu20.04.1) date 2022-05-07 15:00:13*
%MOMM*%
%LPD*%
G01*
G04 APERTURE LIST*
%ADD10C,0.150000*%
%ADD11C,0.125000*%
%ADD12C,0.120000*%
G04 APERTURE END LIST*
D10*
X150598095Y-106497380D02*
X150598095Y-105497380D01*
X150360000Y-105497380D01*
X150217142Y-105545000D01*
X150121904Y-105640238D01*
X150074285Y-105735476D01*
X150026666Y-105925952D01*
X150026666Y-106068809D01*
X150074285Y-106259285D01*
X150121904Y-106354523D01*
X150217142Y-106449761D01*
X150360000Y-106497380D01*
X150598095Y-106497380D01*
X149645714Y-105592619D02*
X149598095Y-105545000D01*
X149502857Y-105497380D01*
X149264761Y-105497380D01*
X149169523Y-105545000D01*
X149121904Y-105592619D01*
X149074285Y-105687857D01*
X149074285Y-105783095D01*
X149121904Y-105925952D01*
X149693333Y-106497380D01*
X149074285Y-106497380D01*
X145541904Y-105545000D02*
X145637142Y-105497380D01*
X145780000Y-105497380D01*
X145922857Y-105545000D01*
X146018095Y-105640238D01*
X146065714Y-105735476D01*
X146113333Y-105925952D01*
X146113333Y-106068809D01*
X146065714Y-106259285D01*
X146018095Y-106354523D01*
X145922857Y-106449761D01*
X145780000Y-106497380D01*
X145684761Y-106497380D01*
X145541904Y-106449761D01*
X145494285Y-106402142D01*
X145494285Y-106068809D01*
X145684761Y-106068809D01*
X145065714Y-106497380D02*
X145065714Y-105497380D01*
X144494285Y-106497380D01*
X144494285Y-105497380D01*
X144018095Y-106497380D02*
X144018095Y-105497380D01*
X143780000Y-105497380D01*
X143637142Y-105545000D01*
X143541904Y-105640238D01*
X143494285Y-105735476D01*
X143446666Y-105925952D01*
X143446666Y-106068809D01*
X143494285Y-106259285D01*
X143541904Y-106354523D01*
X143637142Y-106449761D01*
X143780000Y-106497380D01*
X144018095Y-106497380D01*
D11*
X150745000Y-93725952D02*
X150768809Y-93773571D01*
X150768809Y-93845000D01*
X150745000Y-93916428D01*
X150697380Y-93964047D01*
X150649761Y-93987857D01*
X150554523Y-94011666D01*
X150483095Y-94011666D01*
X150387857Y-93987857D01*
X150340238Y-93964047D01*
X150292619Y-93916428D01*
X150268809Y-93845000D01*
X150268809Y-93797380D01*
X150292619Y-93725952D01*
X150316428Y-93702142D01*
X150483095Y-93702142D01*
X150483095Y-93797380D01*
X150268809Y-93487857D02*
X150768809Y-93487857D01*
X150268809Y-93202142D01*
X150768809Y-93202142D01*
X150268809Y-92964047D02*
X150768809Y-92964047D01*
X150768809Y-92845000D01*
X150745000Y-92773571D01*
X150697380Y-92725952D01*
X150649761Y-92702142D01*
X150554523Y-92678333D01*
X150483095Y-92678333D01*
X150387857Y-92702142D01*
X150340238Y-92725952D01*
X150292619Y-92773571D01*
X150268809Y-92845000D01*
X150268809Y-92964047D01*
X150745000Y-89280952D02*
X150768809Y-89328571D01*
X150768809Y-89400000D01*
X150745000Y-89471428D01*
X150697380Y-89519047D01*
X150649761Y-89542857D01*
X150554523Y-89566666D01*
X150483095Y-89566666D01*
X150387857Y-89542857D01*
X150340238Y-89519047D01*
X150292619Y-89471428D01*
X150268809Y-89400000D01*
X150268809Y-89352380D01*
X150292619Y-89280952D01*
X150316428Y-89257142D01*
X150483095Y-89257142D01*
X150483095Y-89352380D01*
X150268809Y-89042857D02*
X150768809Y-89042857D01*
X150268809Y-88757142D01*
X150768809Y-88757142D01*
X150268809Y-88519047D02*
X150768809Y-88519047D01*
X150768809Y-88400000D01*
X150745000Y-88328571D01*
X150697380Y-88280952D01*
X150649761Y-88257142D01*
X150554523Y-88233333D01*
X150483095Y-88233333D01*
X150387857Y-88257142D01*
X150340238Y-88280952D01*
X150292619Y-88328571D01*
X150268809Y-88400000D01*
X150268809Y-88519047D01*
D10*
X153138095Y-106497380D02*
X153138095Y-105497380D01*
X152900000Y-105497380D01*
X152757142Y-105545000D01*
X152661904Y-105640238D01*
X152614285Y-105735476D01*
X152566666Y-105925952D01*
X152566666Y-106068809D01*
X152614285Y-106259285D01*
X152661904Y-106354523D01*
X152757142Y-106449761D01*
X152900000Y-106497380D01*
X153138095Y-106497380D01*
X152233333Y-105497380D02*
X151614285Y-105497380D01*
X151947619Y-105878333D01*
X151804761Y-105878333D01*
X151709523Y-105925952D01*
X151661904Y-105973571D01*
X151614285Y-106068809D01*
X151614285Y-106306904D01*
X151661904Y-106402142D01*
X151709523Y-106449761D01*
X151804761Y-106497380D01*
X152090476Y-106497380D01*
X152185714Y-106449761D01*
X152233333Y-106402142D01*
X148058095Y-106497380D02*
X148058095Y-105497380D01*
X147820000Y-105497380D01*
X147677142Y-105545000D01*
X147581904Y-105640238D01*
X147534285Y-105735476D01*
X147486666Y-105925952D01*
X147486666Y-106068809D01*
X147534285Y-106259285D01*
X147581904Y-106354523D01*
X147677142Y-106449761D01*
X147820000Y-106497380D01*
X148058095Y-106497380D01*
X146534285Y-106497380D02*
X147105714Y-106497380D01*
X146820000Y-106497380D02*
X146820000Y-105497380D01*
X146915238Y-105640238D01*
X147010476Y-105735476D01*
X147105714Y-105783095D01*
%TO.C,R3*%
X151582380Y-101433333D02*
X151106190Y-101100000D01*
X151582380Y-100861904D02*
X150582380Y-100861904D01*
X150582380Y-101242857D01*
X150630000Y-101338095D01*
X150677619Y-101385714D01*
X150772857Y-101433333D01*
X150915714Y-101433333D01*
X151010952Y-101385714D01*
X151058571Y-101338095D01*
X151106190Y-101242857D01*
X151106190Y-100861904D01*
X150582380Y-101766666D02*
X150582380Y-102385714D01*
X150963333Y-102052380D01*
X150963333Y-102195238D01*
X151010952Y-102290476D01*
X151058571Y-102338095D01*
X151153809Y-102385714D01*
X151391904Y-102385714D01*
X151487142Y-102338095D01*
X151534761Y-102290476D01*
X151582380Y-102195238D01*
X151582380Y-101909523D01*
X151534761Y-101814285D01*
X151487142Y-101766666D01*
%TO.C,D3*%
X153138095Y-96337380D02*
X153138095Y-95337380D01*
X152900000Y-95337380D01*
X152757142Y-95385000D01*
X152661904Y-95480238D01*
X152614285Y-95575476D01*
X152566666Y-95765952D01*
X152566666Y-95908809D01*
X152614285Y-96099285D01*
X152661904Y-96194523D01*
X152757142Y-96289761D01*
X152900000Y-96337380D01*
X153138095Y-96337380D01*
X152233333Y-95337380D02*
X151614285Y-95337380D01*
X151947619Y-95718333D01*
X151804761Y-95718333D01*
X151709523Y-95765952D01*
X151661904Y-95813571D01*
X151614285Y-95908809D01*
X151614285Y-96146904D01*
X151661904Y-96242142D01*
X151709523Y-96289761D01*
X151804761Y-96337380D01*
X152090476Y-96337380D01*
X152185714Y-96289761D01*
X152233333Y-96242142D01*
%TO.C,D2*%
X153138095Y-91892380D02*
X153138095Y-90892380D01*
X152900000Y-90892380D01*
X152757142Y-90940000D01*
X152661904Y-91035238D01*
X152614285Y-91130476D01*
X152566666Y-91320952D01*
X152566666Y-91463809D01*
X152614285Y-91654285D01*
X152661904Y-91749523D01*
X152757142Y-91844761D01*
X152900000Y-91892380D01*
X153138095Y-91892380D01*
X152185714Y-90987619D02*
X152138095Y-90940000D01*
X152042857Y-90892380D01*
X151804761Y-90892380D01*
X151709523Y-90940000D01*
X151661904Y-90987619D01*
X151614285Y-91082857D01*
X151614285Y-91178095D01*
X151661904Y-91320952D01*
X152233333Y-91892380D01*
X151614285Y-91892380D01*
%TO.C,R2*%
X149042380Y-101433333D02*
X148566190Y-101100000D01*
X149042380Y-100861904D02*
X148042380Y-100861904D01*
X148042380Y-101242857D01*
X148090000Y-101338095D01*
X148137619Y-101385714D01*
X148232857Y-101433333D01*
X148375714Y-101433333D01*
X148470952Y-101385714D01*
X148518571Y-101338095D01*
X148566190Y-101242857D01*
X148566190Y-100861904D01*
X148137619Y-101814285D02*
X148090000Y-101861904D01*
X148042380Y-101957142D01*
X148042380Y-102195238D01*
X148090000Y-102290476D01*
X148137619Y-102338095D01*
X148232857Y-102385714D01*
X148328095Y-102385714D01*
X148470952Y-102338095D01*
X149042380Y-101766666D01*
X149042380Y-102385714D01*
%TO.C,R1*%
X146502380Y-101433333D02*
X146026190Y-101100000D01*
X146502380Y-100861904D02*
X145502380Y-100861904D01*
X145502380Y-101242857D01*
X145550000Y-101338095D01*
X145597619Y-101385714D01*
X145692857Y-101433333D01*
X145835714Y-101433333D01*
X145930952Y-101385714D01*
X145978571Y-101338095D01*
X146026190Y-101242857D01*
X146026190Y-100861904D01*
X146502380Y-102385714D02*
X146502380Y-101814285D01*
X146502380Y-102100000D02*
X145502380Y-102100000D01*
X145645238Y-102004761D01*
X145740476Y-101909523D01*
X145788095Y-101814285D01*
%TO.C,D1*%
X153138095Y-87447380D02*
X153138095Y-86447380D01*
X152900000Y-86447380D01*
X152757142Y-86495000D01*
X152661904Y-86590238D01*
X152614285Y-86685476D01*
X152566666Y-86875952D01*
X152566666Y-87018809D01*
X152614285Y-87209285D01*
X152661904Y-87304523D01*
X152757142Y-87399761D01*
X152900000Y-87447380D01*
X153138095Y-87447380D01*
X151614285Y-87447380D02*
X152185714Y-87447380D01*
X151900000Y-87447380D02*
X151900000Y-86447380D01*
X151995238Y-86590238D01*
X152090476Y-86685476D01*
X152185714Y-86733095D01*
%TO.C,J1*%
X142573333Y-106132380D02*
X142573333Y-106846666D01*
X142620952Y-106989523D01*
X142716190Y-107084761D01*
X142859047Y-107132380D01*
X142954285Y-107132380D01*
X141573333Y-107132380D02*
X142144761Y-107132380D01*
X141859047Y-107132380D02*
X141859047Y-106132380D01*
X141954285Y-106275238D01*
X142049523Y-106370476D01*
X142144761Y-106418095D01*
D12*
X149480000Y-108992929D02*
X149480000Y-109390000D01*
X146940000Y-108992929D02*
X146940000Y-109390000D01*
X144460000Y-112050000D02*
X144460000Y-118050000D01*
X144820000Y-112050000D02*
X144820000Y-118050000D01*
X144700000Y-112050000D02*
X144700000Y-118050000D01*
X145060000Y-112050000D02*
X145060000Y-118050000D01*
X150240000Y-118050000D02*
X150240000Y-112050000D01*
X152020000Y-112050000D02*
X152020000Y-118050000D01*
X149480000Y-112050000D02*
X149480000Y-118050000D01*
X143450000Y-112050000D02*
X143450000Y-109390000D01*
X148590000Y-109390000D02*
X148590000Y-112050000D01*
X145160000Y-118050000D02*
X145160000Y-112050000D01*
X144400000Y-109060000D02*
X144400000Y-109390000D01*
X143450000Y-109390000D02*
X153730000Y-109390000D01*
X145160000Y-109060000D02*
X145160000Y-109390000D01*
X146940000Y-118050000D02*
X147700000Y-118050000D01*
X144940000Y-112050000D02*
X144940000Y-118050000D01*
X144780000Y-106680000D02*
X143510000Y-106680000D01*
X153730000Y-112050000D02*
X143450000Y-112050000D01*
X146940000Y-112050000D02*
X146940000Y-118050000D01*
X147700000Y-108992929D02*
X147700000Y-109390000D01*
X151130000Y-109390000D02*
X151130000Y-112050000D01*
X152020000Y-108992929D02*
X152020000Y-109390000D01*
X146050000Y-109390000D02*
X146050000Y-112050000D01*
X143510000Y-106680000D02*
X143510000Y-107950000D01*
X144580000Y-112050000D02*
X144580000Y-118050000D01*
X144400000Y-118050000D02*
X145160000Y-118050000D01*
X150240000Y-108992929D02*
X150240000Y-109390000D01*
X152780000Y-108992929D02*
X152780000Y-109390000D01*
X152020000Y-118050000D02*
X152780000Y-118050000D01*
X147700000Y-118050000D02*
X147700000Y-112050000D01*
X144400000Y-112050000D02*
X144400000Y-118050000D01*
X149480000Y-118050000D02*
X150240000Y-118050000D01*
X152780000Y-118050000D02*
X152780000Y-112050000D01*
X153730000Y-109390000D02*
X153730000Y-112050000D01*
%TD*%
M02*
